<svg xmlns="http://www.w3.org/2000/svg" viewBox="0 0 64 64">
<defs><style>.y{fill:#000000;}@media (prefers-color-scheme:dark){.y{fill:#ffffff;}}</style></defs>
<path class="y" d="M34.43,5.11c-13.11-1.15-24.48,7.08-28.17,18.73.1,9.66,7.99,17.49,17.67,17.49s17.57-7.82,17.68-17.48c.02-2.08,1.48-3.95,3.54-4.18,2.41-.27,4.46,1.61,4.46,3.97,0,14.16-11.52,25.68-25.68,25.68-6.24,0-11.97-2.24-16.42-5.95,4.29,9.22,13.64,15.62,24.49,15.62,15.48,0,27.92-13.04,26.95-28.73-.82-13.18-11.36-24.01-24.51-25.16Z"/>
</svg>